<?xml version="1.0" encoding="utf-8"?>
<!-- ANTEA CHANGE SVG LOGO FULL FILE-->
<!-- Generator: Adobe Illustrator 23.1.0, SVG Export Plug-In . SVG Version: 6.00 Build 0)  -->
<svg version="1.1" id="Calque_1" xmlns="http://www.w3.org/2000/svg" xmlns:xlink="http://www.w3.org/1999/xlink" x="0px" y="0px"
	 viewBox="0 0 256 100" style="enable-background:new 0 0 256 100;" xml:space="preserve">
<style type="text/css">
	.st0{clip-path:url(#SVGID_2_);}
	.st1{fill:#FFFFFF;}
	.st2{font-family:'Calibri';}
	.st3{font-size:55.0286px;}
	.st4{clip-path:url(#SVGID_4_);fill-rule:evenodd;clip-rule:evenodd;fill:#428CCB;}
	.st5{clip-path:url(#SVGID_4_);}
	.st6{clip-path:url(#SVGID_6_);fill-rule:evenodd;clip-rule:evenodd;fill:#428CCB;}
	.st7{clip-path:url(#SVGID_6_);}
	.st8{clip-path:url(#SVGID_8_);}
	.st9{clip-path:url(#SVGID_10_);}
	.st10{clip-path:url(#SVGID_12_);fill:#FFFFFF;}
	.st11{clip-path:url(#SVGID_14_);fill-rule:evenodd;clip-rule:evenodd;fill:#FFFFFF;}
</style>
<g>
	<g>
		<defs>
			<rect id="SVGID_1_" x="0.8" y="-7.7" width="255" height="115.7"/>
		</defs>
		<clipPath id="SVGID_2_">
			<use xlink:href="#SVGID_1_"  style="overflow:visible;"/>
		</clipPath>
		<g class="st0">
			<text transform="matrix(0.9875 0 0 1 45.658 60.5718)"><tspan x="0" y="0" class="st1 st2 st3">S</tspan><tspan x="25.2" y="0" class="st1 st2 st3">U</tspan><tspan x="60.7" y="0" class="st1 st2 st3">R</tspan><tspan x="90" y="0" class="st1 st2 st3">V</tspan><tspan x="121.4" y="0" class="st1 st2 st3">E</tspan><tspan x="147.6" y="0" class="st1 st2 st3">A</tspan></text>
		</g>
	</g>
	<g>
		<defs>
			<polygon id="SVGID_3_" points="0.8,108 255.8,108 255.8,-7.7 0.8,-7.7 0.8,108 			"/>
		</defs>
		<clipPath id="SVGID_4_">
			<use xlink:href="#SVGID_3_"  style="overflow:visible;"/>
		</clipPath>
		<path class="st4" d="M0.8,42.2c0-11.6,9.3-21.1,20.8-21.1s20.8,9.4,20.8,21.1c0,11.6-9.3,21.1-20.8,21.1S0.8,53.8,0.8,42.2
			L0.8,42.2z"/>
		<g class="st5">
			<defs>
				<polygon id="SVGID_5_" points="0.8,108 255.8,108 255.8,-7.7 0.8,-7.7 0.8,108 				"/>
			</defs>
			<clipPath id="SVGID_6_">
				<use xlink:href="#SVGID_5_"  style="overflow:visible;"/>
			</clipPath>
			<polygon class="st6" points="157.7,25.7 149.6,50.4 141.5,25.7 157.7,25.7 			"/>
			<g class="st7">
				<defs>
					<polygon id="SVGID_7_" points="0.8,108 255.8,108 255.8,-7.7 0.8,-7.7 0.8,108 					"/>
				</defs>
				<clipPath id="SVGID_8_">
					<use xlink:href="#SVGID_7_"  style="overflow:visible;"/>
				</clipPath>
				<g class="st8">
					<defs>
						<polygon id="SVGID_9_" points="0.8,108 255.8,108 255.8,-7.7 0.8,-7.7 0.8,108 						"/>
					</defs>
					<clipPath id="SVGID_10_">
						<use xlink:href="#SVGID_9_"  style="overflow:visible;"/>
					</clipPath>
					<g class="st9">
						<defs>
							<polygon id="SVGID_11_" points="15,50.7 32.5,52 33.8,34.1 16.2,32.8 15,50.7 							"/>
						</defs>
						<clipPath id="SVGID_12_">
							<use xlink:href="#SVGID_11_"  style="overflow:visible;"/>
						</clipPath>
						<path class="st10" d="M19.9,46.4c0.3,0.4,0.3,1-0.1,1.3l-1.6,0.4l-0.3-0.3l0.6-1.5C18.9,45.9,19.5,46,19.9,46.4L19.9,46.4z
							 M27.7,37.2l-9.8,8.7l-1.4,3.5l3.6-0.9l9.8-8.7"/>
						<path class="st10" d="M31.9,37l-1.2-1.4c-0.3-0.3-0.7-0.4-1-0.1l-1.4,1.2l2.2,2.5l1.4-1.2C32.1,37.7,32.2,37.3,31.9,37
							L31.9,37z"/>
					</g>
				</g>
				<g class="st8">
					<defs>
						<polygon id="SVGID_13_" points="0.8,108 255.8,108 255.8,-7.7 0.8,-7.7 0.8,108 						"/>
					</defs>
					<clipPath id="SVGID_14_">
						<use xlink:href="#SVGID_13_"  style="overflow:visible;"/>
					</clipPath>
					<path class="st11" d="M19.2,28.8h3.9c0.7,0,1.3,0.6,1.3,1.3v0.7H30c0.7,0,1.3,0.6,1.3,1.3v1.8h-2v-1.1h-3.6v2h-9.2v-2h-3.6
						v20.7h16.4V40.8h2v13.4c0,0.7-0.6,1.3-1.3,1.3H12.3c-0.7,0-1.3-0.6-1.3-1.3V32.2c0-0.7,0.6-1.3,1.3-1.3h5.6v-0.7
						C17.8,29.4,18.4,28.8,19.2,28.8L19.2,28.8z M21.1,30.1c-0.3,0-0.5,0.1-0.7,0.3c-0.2,0.2-0.3,0.4-0.3,0.7c0,0.6,0.4,1,1,1
						c0.6,0,1-0.4,1-1C22.1,30.6,21.7,30.1,21.1,30.1L21.1,30.1z"/>
				</g>
			</g>
		</g>
	</g>
</g>
</svg>
