<?xml version="1.0" encoding="utf-8"?>
<!-- Generator: Adobe Illustrator 23.1.0, SVG Export Plug-In . SVG Version: 6.00 Build 0)  -->
<svg version="1.1" id="Calque_1" xmlns="http://www.w3.org/2000/svg" xmlns:xlink="http://www.w3.org/1999/xlink" x="0px" y="0px"
	 viewBox="0 0 256 100" style="enable-background:new 0 0 256 100;" xml:space="preserve">
<style type="text/css">
	.st0{enable-background:new    ;}
	.st1{fill:#FFFFFF;}
	.st2{fill-rule:evenodd;clip-rule:evenodd;fill:#448CCB;}
	.st3{fill-rule:evenodd;clip-rule:evenodd;fill:#FFFFFF;}
</style>
<g>
	<g>
		<g class="st0">
			<path class="st1" d="M85.6,58.8c0,1.6-0.3,3.1-0.9,4.4c-0.6,1.3-1.4,2.4-2.5,3.2c-1.1,0.9-2.3,1.6-3.7,2s-3,0.7-4.6,0.7
				c-1.2,0-2.2-0.1-3.2-0.3c-1-0.2-1.9-0.4-2.6-0.7c-0.8-0.3-1.4-0.6-1.9-0.9c-0.5-0.3-0.9-0.6-1.1-0.8s-0.4-0.5-0.5-0.8
				c-0.1-0.3-0.1-0.8-0.1-1.3c0-0.4,0-0.7,0.1-1c0-0.3,0.1-0.5,0.2-0.6c0.1-0.2,0.2-0.3,0.3-0.3c0.1-0.1,0.2-0.1,0.4-0.1
				c0.2,0,0.6,0.2,1,0.5s1,0.6,1.7,1c0.7,0.4,1.6,0.7,2.6,1c1,0.3,2.2,0.5,3.5,0.5c1,0,1.9-0.1,2.7-0.4c0.8-0.3,1.5-0.6,2.1-1.1
				c0.6-0.5,1-1.1,1.4-1.8s0.5-1.5,0.5-2.4c0-1-0.2-1.8-0.7-2.5c-0.4-0.7-1-1.3-1.8-1.8c-0.7-0.5-1.6-1-2.5-1.5
				c-0.9-0.4-1.9-0.9-2.9-1.3c-1-0.5-1.9-1-2.8-1.5c-0.9-0.6-1.7-1.2-2.5-2C67,47.9,66.4,47,66,46c-0.5-1-0.7-2.2-0.7-3.6
				c0-1.5,0.3-2.7,0.8-3.9c0.5-1.1,1.2-2.1,2.2-2.9c0.9-0.8,2-1.4,3.3-1.8s2.7-0.6,4.2-0.6c0.8,0,1.5,0.1,2.3,0.2
				c0.8,0.1,1.5,0.3,2.2,0.5c0.7,0.2,1.3,0.5,1.8,0.8c0.5,0.3,0.9,0.5,1,0.7s0.3,0.3,0.3,0.4c0.1,0.1,0.1,0.2,0.1,0.4
				c0,0.2,0.1,0.3,0.1,0.6c0,0.2,0,0.5,0,0.8c0,0.3,0,0.6,0,0.9c0,0.3-0.1,0.5-0.1,0.6c-0.1,0.2-0.1,0.3-0.2,0.4
				c-0.1,0.1-0.2,0.1-0.3,0.1c-0.2,0-0.5-0.1-0.9-0.4c-0.4-0.3-0.9-0.5-1.5-0.8s-1.3-0.6-2.1-0.9c-0.8-0.3-1.7-0.4-2.8-0.4
				c-1,0-1.8,0.1-2.5,0.4c-0.7,0.3-1.3,0.6-1.8,1c-0.5,0.4-0.8,0.9-1,1.5c-0.2,0.6-0.3,1.2-0.3,1.9c0,1,0.2,1.8,0.7,2.5
				c0.4,0.7,1,1.3,1.8,1.9c0.7,0.5,1.6,1,2.5,1.5c0.9,0.4,1.9,0.9,2.9,1.4s1.9,1,2.9,1.5c0.9,0.5,1.8,1.2,2.5,1.9
				c0.7,0.7,1.3,1.6,1.8,2.6C85.3,56.2,85.6,57.4,85.6,58.8z"/>
		</g>
		<g class="st0">
			<path class="st1" d="M117.8,55.7c0,2.1-0.3,4-0.9,5.7s-1.5,3.1-2.6,4.2s-2.5,2-4.1,2.6c-1.6,0.6-3.5,0.9-5.5,0.9
				c-1.9,0-3.6-0.3-5.2-0.8c-1.6-0.6-2.9-1.4-4-2.5c-1.1-1.1-2-2.4-2.6-4.1c-0.6-1.6-0.9-3.5-0.9-5.6V34.5c0-0.1,0-0.3,0.1-0.4
				c0.1-0.1,0.2-0.2,0.4-0.3c0.2-0.1,0.4-0.1,0.7-0.2c0.3,0,0.7-0.1,1.1-0.1c0.4,0,0.8,0,1.1,0.1c0.3,0,0.5,0.1,0.7,0.2
				c0.2,0.1,0.3,0.1,0.4,0.3c0.1,0.1,0.1,0.2,0.1,0.4v21c0,1.6,0.2,3,0.6,4.2c0.4,1.2,1,2.2,1.7,3s1.6,1.4,2.7,1.8
				c1,0.4,2.2,0.6,3.5,0.6c1.3,0,2.5-0.2,3.5-0.6c1-0.4,1.9-1,2.6-1.8c0.7-0.8,1.3-1.8,1.6-2.9c0.4-1.2,0.6-2.5,0.6-4.1V34.5
				c0-0.1,0-0.3,0.1-0.4c0.1-0.1,0.2-0.2,0.4-0.3c0.2-0.1,0.4-0.1,0.7-0.2c0.3,0,0.7-0.1,1.1-0.1c0.4,0,0.8,0,1.1,0.1
				c0.3,0,0.5,0.1,0.7,0.2c0.2,0.1,0.3,0.1,0.4,0.3c0.1,0.1,0.1,0.2,0.1,0.4V55.7z"/>
		</g>
		<g class="st0">
			<path class="st1" d="M150,67.9c0,0.1,0,0.3-0.1,0.4c-0.1,0.1-0.2,0.2-0.3,0.3c-0.2,0.1-0.4,0.1-0.7,0.2s-0.7,0.1-1.3,0.1
				c-0.5,0-0.8,0-1.1-0.1s-0.5-0.1-0.7-0.2c-0.2-0.1-0.3-0.2-0.4-0.3c-0.1-0.1-0.2-0.3-0.3-0.5l-3.2-8.2c-0.4-0.9-0.8-1.8-1.2-2.6
				c-0.4-0.8-0.9-1.5-1.4-2c-0.5-0.6-1.2-1-1.9-1.3c-0.7-0.3-1.6-0.5-2.7-0.5h-3.1v14.8c0,0.1,0,0.3-0.1,0.4
				c-0.1,0.1-0.2,0.2-0.4,0.3c-0.2,0.1-0.4,0.1-0.7,0.2c-0.3,0-0.7,0.1-1.1,0.1s-0.8,0-1.1-0.1c-0.3,0-0.5-0.1-0.7-0.2
				c-0.2-0.1-0.3-0.1-0.4-0.3c-0.1-0.1-0.1-0.2-0.1-0.4V35.7c0-0.7,0.2-1.2,0.5-1.5c0.4-0.3,0.7-0.4,1.2-0.4h7.3
				c0.9,0,1.6,0,2.2,0.1c0.6,0,1.1,0.1,1.6,0.1c1.3,0.2,2.5,0.6,3.5,1.1c1,0.5,1.9,1.1,2.6,1.9c0.7,0.8,1.2,1.7,1.6,2.6
				c0.3,1,0.5,2.1,0.5,3.3c0,1.2-0.2,2.2-0.5,3.1c-0.3,0.9-0.8,1.7-1.3,2.4c-0.6,0.7-1.3,1.3-2.1,1.8s-1.7,1-2.7,1.3
				c0.6,0.3,1.1,0.6,1.5,1c0.5,0.4,0.9,0.8,1.3,1.4c0.4,0.5,0.8,1.2,1.1,1.9c0.4,0.7,0.7,1.5,1.1,2.4l3.1,7.7
				c0.2,0.6,0.4,1.1,0.5,1.4C149.9,67.5,150,67.7,150,67.9z M143.1,43.4c0-1.4-0.3-2.5-0.9-3.5s-1.6-1.6-3-2
				c-0.4-0.1-0.9-0.2-1.5-0.3c-0.6-0.1-1.3-0.1-2.2-0.1h-3.8v11.7h4.5c1.2,0,2.2-0.1,3.1-0.4c0.9-0.3,1.6-0.7,2.2-1.2
				c0.6-0.5,1-1.2,1.3-1.9S143.1,44.3,143.1,43.4z"/>
		</g>
		<g class="st0">
			<path class="st1" d="M169.7,67.8c-0.1,0.2-0.2,0.4-0.3,0.5c-0.1,0.1-0.3,0.2-0.5,0.3c-0.2,0.1-0.5,0.1-0.8,0.1
				c-0.3,0-0.8,0-1.3,0c-0.4,0-0.7,0-1,0c-0.3,0-0.5,0-0.8-0.1c-0.2,0-0.4-0.1-0.5-0.1c-0.2,0-0.3-0.1-0.4-0.2s-0.2-0.2-0.3-0.3
				c-0.1-0.1-0.1-0.2-0.2-0.4l-11.2-32.3c-0.1-0.4-0.2-0.7-0.2-1s0.1-0.4,0.2-0.6c0.2-0.1,0.4-0.2,0.8-0.2c0.4,0,0.8-0.1,1.4-0.1
				c0.5,0,0.9,0,1.2,0c0.3,0,0.5,0.1,0.7,0.1c0.2,0.1,0.3,0.2,0.4,0.3c0.1,0.1,0.2,0.3,0.2,0.4l9.8,29.3h0l9.6-29.2
				c0.1-0.2,0.1-0.4,0.2-0.5s0.2-0.2,0.4-0.3c0.2-0.1,0.4-0.1,0.7-0.1c0.3,0,0.7,0,1.3,0c0.5,0,1,0,1.3,0.1c0.3,0,0.5,0.1,0.7,0.3
				c0.1,0.1,0.2,0.3,0.1,0.6c0,0.2-0.1,0.6-0.3,1L169.7,67.8z"/>
		</g>
		<g class="st0">
			<path class="st1" d="M206.1,66.7c0,0.3,0,0.6-0.1,0.8c0,0.2-0.1,0.4-0.2,0.6c-0.1,0.2-0.2,0.3-0.3,0.3s-0.2,0.1-0.4,0.1h-16.5
				c-0.4,0-0.8-0.1-1.2-0.4c-0.4-0.3-0.5-0.8-0.5-1.5v-31c0-0.7,0.2-1.2,0.5-1.5c0.4-0.3,0.7-0.4,1.2-0.4H205c0.1,0,0.3,0,0.4,0.1
				c0.1,0.1,0.2,0.2,0.3,0.3c0.1,0.2,0.1,0.4,0.2,0.6c0,0.2,0.1,0.5,0.1,0.9c0,0.3,0,0.6-0.1,0.8c0,0.2-0.1,0.4-0.2,0.6
				c-0.1,0.2-0.2,0.3-0.3,0.3c-0.1,0.1-0.2,0.1-0.4,0.1h-13.4v10.9h11.5c0.1,0,0.3,0,0.4,0.1c0.1,0.1,0.2,0.2,0.3,0.3
				c0.1,0.1,0.1,0.3,0.2,0.6c0,0.3,0.1,0.5,0.1,0.9c0,0.3,0,0.6-0.1,0.8c0,0.2-0.1,0.4-0.2,0.6c-0.1,0.1-0.2,0.2-0.3,0.3
				c-0.1,0.1-0.2,0.1-0.4,0.1h-11.5v12.4h13.6c0.1,0,0.3,0,0.4,0.1c0.1,0.1,0.2,0.2,0.3,0.3c0.1,0.2,0.2,0.3,0.2,0.6
				C206.1,66,206.1,66.3,206.1,66.7z"/>
		</g>
		<g class="st0">
			<path class="st1" d="M238.6,66.9c0.1,0.4,0.2,0.7,0.2,1c0,0.2-0.1,0.4-0.2,0.6c-0.1,0.1-0.4,0.2-0.7,0.2c-0.3,0-0.8,0.1-1.3,0.1
				c-0.5,0-1,0-1.3,0c-0.3,0-0.6-0.1-0.7-0.1s-0.3-0.1-0.4-0.3c-0.1-0.1-0.2-0.2-0.2-0.4l-2.9-8.5h-14.3l-2.8,8.4
				c-0.1,0.2-0.1,0.3-0.2,0.4c-0.1,0.1-0.2,0.2-0.4,0.3c-0.2,0.1-0.4,0.1-0.7,0.2s-0.7,0.1-1.2,0.1c-0.5,0-0.9,0-1.3-0.1
				s-0.6-0.1-0.7-0.3s-0.2-0.3-0.2-0.6c0-0.2,0.1-0.6,0.2-1L221,34.6c0.1-0.2,0.2-0.4,0.3-0.5c0.1-0.1,0.3-0.2,0.5-0.3
				c0.2-0.1,0.5-0.1,0.8-0.1c0.3,0,0.8,0,1.3,0c0.6,0,1,0,1.4,0c0.4,0,0.7,0.1,0.9,0.1c0.2,0.1,0.4,0.2,0.5,0.3
				c0.1,0.1,0.2,0.3,0.3,0.5L238.6,66.9z M223.8,38.4L223.8,38.4l-5.9,17.3h11.9L223.8,38.4z"/>
		</g>
	</g>
	<g>
		<path class="st2" d="M17.7,50.2c0-11.6,9.3-21.1,20.8-21.1s20.8,9.4,20.8,21.1c0,11.6-9.3,21.1-20.8,21.1S17.7,61.9,17.7,50.2
			L17.7,50.2z"/>
	</g>
	<g>
		<polygon class="st2" points="174.8,33.8 166.7,58.4 158.6,33.8 		"/>
	</g>
	<g>
		<path class="st1" d="M36.7,54.4c0.3,0.4,0.3,1-0.1,1.3L35,56.1l-0.3-0.3l0.6-1.5C35.8,54,36.4,54,36.7,54.4L36.7,54.4z M44.6,45.2
			l-9.8,8.7l-1.4,3.5l3.6-0.9l9.8-8.7"/>
	</g>
	<g>
		<path class="st1" d="M48.8,45l-1.2-1.4c-0.3-0.3-0.7-0.4-1-0.1l-1.4,1.2l2.2,2.5l1.4-1.2C49,45.8,49,45.3,48.8,45L48.8,45z"/>
	</g>
	<g>
		<path class="st3" d="M36,36.8h3.9c0.7,0,1.3,0.6,1.3,1.3v0.7h5.6c0.7,0,1.3,0.6,1.3,1.3v1.8h-2v-1.1h-3.6v2h-9.2v-2h-3.6v20.7
			h16.4V48.8h2v13.4c0,0.7-0.6,1.3-1.3,1.3H29.1c-0.7,0-1.3-0.6-1.3-1.3V40.1c0-0.7,0.6-1.3,1.3-1.3h5.6v-0.7
			C34.7,37.4,35.3,36.8,36,36.8L36,36.8z M38,38.2c-0.3,0-0.5,0.1-0.7,0.3S37,38.9,37,39.2c0,0.6,0.4,1,1,1s1-0.4,1-1
			S38.6,38.2,38,38.2L38,38.2z"/>
	</g>
</g>
</svg>
