<?xml version="1.0" encoding="utf-8"?>
<!-- Generator: Adobe Illustrator 25.4.1, SVG Export Plug-In . SVG Version: 6.00 Build 0)  -->
<svg version="1.1" id="Calque_2" xmlns="http://www.w3.org/2000/svg" xmlns:xlink="http://www.w3.org/1999/xlink" x="0px" y="0px"
	 viewBox="0 0 1167.3 230.8" width="1167px" height="230.8px" style="enable-background:new 0 0 1167.3 230.8;" xml:space="preserve">
<style type="text/css">
	.st0{enable-background:new    ;}
	.st1{fill:#FFFFFF;}
	.st2{fill-rule:evenodd;clip-rule:evenodd;fill:#448CCB;}
	.st3{fill-rule:evenodd;clip-rule:evenodd;fill:#FFFFFF;}
</style>
<g>
	<g>
		<g class="st0">
			<path class="st1" d="M359.7,159.8c0,8.4-1.6,16.2-4.7,23c-3.1,6.8-7.3,12.5-13.1,16.7c-5.7,4.7-12,8.4-19.3,10.4
				c-7.3,2.1-15.7,3.7-24,3.7c-6.3,0-11.5-0.5-16.7-1.6c-5.2-1-9.9-2.1-13.6-3.7c-4.2-1.6-7.3-3.1-9.9-4.7c-2.6-1.6-4.7-3.1-5.7-4.2
				c-1-1-2.1-2.6-2.6-4.2c-0.5-1.6-0.5-4.2-0.5-6.8c0-2.1,0-3.7,0.5-5.2c0-1.6,0.5-2.6,1-3.1c0.5-1,1-1.6,1.6-1.6
				c0.5-0.5,1-0.5,2.1-0.5c1,0,3.1,1,5.2,2.6s5.2,3.1,8.9,5.2c3.7,2.1,8.4,3.7,13.6,5.2c5.2,1.6,11.5,2.6,18.3,2.6
				c5.2,0,9.9-0.5,14.1-2.1c4.2-1.6,7.8-3.1,11-5.7c3.1-2.6,5.2-5.7,7.3-9.4s2.6-7.8,2.6-12.5c0-5.2-1-9.4-3.7-13.1
				c-2.1-3.7-5.2-6.8-9.4-9.4c-3.7-2.6-8.4-5.2-13.1-7.8c-4.7-2.1-9.9-4.7-15.1-6.8c-5.2-2.6-9.9-5.2-14.6-7.8
				c-4.7-3.1-8.9-6.3-13.1-10.4c-4.2-5.7-7.3-10.4-9.4-15.7c-2.6-5.2-3.7-11.5-3.7-18.8c0-7.8,1.6-14.1,4.2-20.4
				c2.6-5.7,6.3-11,11.5-15.1c4.7-4.2,10.4-7.3,17.2-9.4s14.1-3.1,21.9-3.1c4.2,0,7.8,0.5,12,1c4.2,0.5,7.8,1.6,11.5,2.6
				s6.8,2.6,9.4,4.2s4.7,2.6,5.2,3.7s1.6,1.6,1.6,2.1c0.5,0.5,0.5,1,0.5,2.1s0.5,1.6,0.5,3.1c0,1,0,2.6,0,4.2s0,3.1,0,4.7
				c0,1.6-0.5,2.6-0.5,3.1c-0.5,1-0.5,1.6-1,2.1c-0.5,0.5-1,0.5-1.6,0.5c-1,0-2.6-0.5-4.7-2.1c-2.1-1.6-4.7-2.6-7.8-4.2
				s-6.8-3.1-11-4.7c-4.2-1.6-8.9-2.1-14.6-2.1c-5.2,0-9.4,0.5-13.1,2.1c-3.7,1.6-6.8,3.1-9.4,5.2s-4.2,4.7-5.2,7.8
				c-1,3.1-1.6,6.3-1.6,9.9c0,5.2,1,9.4,3.7,13.1c2.1,3.7,5.2,6.8,9.4,9.9c3.7,2.6,8.4,5.2,13.1,7.8c4.7,2.1,9.9,4.7,15.1,7.3
				c5.2,2.6,9.9,5.2,15.1,7.8c4.7,2.6,9.4,6.3,13.1,9.9c3.7,3.7,6.8,8.4,9.4,13.6C358.1,146.2,359.7,152.5,359.7,159.8z"/>
		</g>
		<g class="st0">
			<path class="st1" d="M527.8,143.6c0,11-1.6,20.9-4.7,29.8c-3.1,8.9-7.8,16.2-13.6,21.9c-5.7,5.7-13.1,10.4-21.4,13.6
				c-8.4,3.1-18.3,4.7-28.7,4.7c-9.9,0-18.8-1.6-27.2-4.2c-8.4-3.1-15.1-7.3-20.9-13.1s-10.4-12.5-13.6-21.4
				c-3.1-8.4-4.7-18.3-4.7-29.2V32.9c0-0.5,0-1.6,0.5-2.1c0.5-0.5,1-1,2.1-1.6c1-0.5,2.1-0.5,3.7-1c1.6,0,3.7-0.5,5.7-0.5
				c2.1,0,4.2,0,5.7,0.5c1.6,0,2.6,0.5,3.7,1c1,0.5,1.6,0.5,2.1,1.6c0.5,0.5,0.5,1,0.5,2.1v109.7c0,8.4,1,15.7,3.1,21.9
				c2.1,6.3,5.2,11.5,8.9,15.7c3.7,4.2,8.4,7.3,14.1,9.4c5.2,2.1,11.5,3.1,18.3,3.1c6.8,0,13.1-1,18.3-3.1c5.2-2.1,9.9-5.2,13.6-9.4
				c3.7-4.2,6.8-9.4,8.4-15.1c2.1-6.3,3.1-13.1,3.1-21.4V32.9c0-0.5,0-1.6,0.5-2.1c0.5-0.5,1-1,2.1-1.6c1-0.5,2.1-0.5,3.7-1
				c1.6,0,3.7-0.5,5.7-0.5c2.1,0,4.2,0,5.7,0.5c1.6,0,2.6,0.5,3.7,1c1,0.5,1.6,0.5,2.1,1.6c0.5,0.5,0.5,1,0.5,2.1v110.7H527.8z"/>
		</g>
		<g class="st0">
			<path class="st1" d="M696,207.3c0,0.5,0,1.6-0.5,2.1c-0.5,0.5-1,1-1.6,1.6c-1,0.5-2.1,0.5-3.7,1c-1.6,0.5-3.7,0.5-6.8,0.5
				c-2.6,0-4.2,0-5.7-0.5c-1.6-0.5-2.6-0.5-3.7-1s-1.6-1-2.1-1.6c-0.5-0.5-1-1.6-1.6-2.6l-16.7-42.8c-2.1-4.7-4.2-9.4-6.3-13.6
				s-4.7-7.8-7.3-10.4c-2.6-3.1-6.3-5.2-9.9-6.8c-3.7-1.6-8.4-2.6-14.1-2.6h-16.2v77.3c0,0.5,0,1.6-0.5,2.1c-0.5,0.5-1,1-2.1,1.6
				c-1,0.5-2.1,0.5-3.7,1c-1.6,0-3.7,0.5-5.7,0.5s-4.2,0-5.7-0.5c-1.6,0-2.6-0.5-3.7-1s-1.6-0.5-2.1-1.6c-0.5-0.5-0.5-1-0.5-2.1
				V39.1c0-3.7,1-6.3,2.6-7.8c2.1-1.6,3.7-2.1,6.3-2.1h38.1c4.7,0,8.4,0,11.5,0.5c3.1,0,5.7,0.5,8.4,0.5c6.8,1,13.1,3.1,18.3,5.7
				c5.2,2.6,9.9,5.7,13.6,9.9c3.7,4.2,6.3,8.9,8.4,13.6c1.6,5.2,2.6,11,2.6,17.2c0,6.3-1,11.5-2.6,16.2c-1.6,4.7-4.2,8.9-6.8,12.5
				c-3.1,3.7-6.8,6.8-11,9.4c-4.2,2.6-8.9,5.2-14.1,6.8c3.1,1.6,5.7,3.1,7.8,5.2c2.6,2.1,4.7,4.2,6.8,7.3c2.1,2.6,4.2,6.3,5.7,9.9
				c2.1,3.7,3.7,7.8,5.7,12.5l16.2,40.2c1,3.1,2.1,5.7,2.6,7.3C695.5,205.2,696,206.2,696,207.3z M660,79.3c0-7.3-1.6-13.1-4.7-18.3
				s-8.4-8.4-15.7-10.4c-2.1-0.5-4.7-1-7.8-1.6s-6.8-0.5-11.5-0.5h-19.8v61.1h23.5c6.3,0,11.5-0.5,16.2-2.1
				c4.7-1.6,8.4-3.7,11.5-6.3c3.1-2.6,5.2-6.3,6.8-9.9C660,87.7,660,84,660,79.3z"/>
		</g>
		<g class="st0">
			<path class="st1" d="M798.9,206.8c-0.5,1-1,2.1-1.6,2.6c-0.5,0.5-1.6,1-2.6,1.6c-1,0.5-2.6,0.5-4.2,0.5c-1.6,0-4.2,0-6.8,0
				c-2.1,0-3.7,0-5.2,0c-1.6,0-2.6,0-4.2-0.5c-1,0-2.1-0.5-2.6-0.5c-1,0-1.6-0.5-2.1-1c-0.5-0.5-1-1-1.6-1.6c-0.5-0.5-0.5-1-1-2.1
				L708.5,37c-0.5-2.1-1-3.7-1-5.2s0.5-2.1,1-3.1c1-0.5,2.1-1,4.2-1c2.1,0,4.2-0.5,7.3-0.5c2.6,0,4.7,0,6.3,0c1.6,0,2.6,0.5,3.7,0.5
				c1,0.5,1.6,1,2.1,1.6c0.5,0.5,1,1.6,1,2.1l51.2,153l0,0l50.1-152.5c0.5-1,0.5-2.1,1-2.6c0.5-0.5,1-1,2.1-1.6
				c1-0.5,2.1-0.5,3.7-0.5s3.7,0,6.8,0c2.6,0,5.2,0,6.8,0.5c1.6,0,2.6,0.5,3.7,1.6c0.5,0.5,1,1.6,0.5,3.1c0,1-0.5,3.1-1.6,5.2
				L798.9,206.8z"/>
		</g>
		<g class="st0">
			<path class="st1" d="M989,201c0,1.6,0,3.1-0.5,4.2c0,1-0.5,2.1-1,3.1c-0.5,1-1,1.6-1.6,1.6c-0.5,0-1,0.5-2.1,0.5h-86.2
				c-2.1,0-4.2-0.5-6.3-2.1c-2.1-1.6-2.6-4.2-2.6-7.8V38.6c0-3.7,1-6.3,2.6-7.8c2.1-1.6,3.7-2.1,6.3-2.1h85.6c0.5,0,1.6,0,2.1,0.5
				c0.5,0.5,1,1,1.6,1.6c0.5,1,0.5,2.1,1,3.1c0,1,0.5,2.6,0.5,4.7c0,1.6,0,3.1-0.5,4.2c0,1-0.5,2.1-1,3.1c-0.5,1-1,1.6-1.6,1.6
				c-0.5,0.5-1,0.5-2.1,0.5h-70v56.9h60.1c0.5,0,1.6,0,2.1,0.5c0.5,0.5,1,1,1.6,1.6c0.5,0.5,0.5,1.6,1,3.1c0,1.6,0.5,2.6,0.5,4.7
				c0,1.6,0,3.1-0.5,4.2c0,1-0.5,2.1-1,3.1c-0.5,0.5-1,1-1.6,1.6s-1,0.5-2.1,0.5h-60.1V189h71c0.5,0,1.6,0,2.1,0.5
				c0.5,0.5,1,1,1.6,1.6c0.5,1,1,1.6,1,3.1C989,197.4,989,198.9,989,201z"/>
		</g>
		<g class="st0">
			<path class="st1" d="M1158.7,202.1c0.5,2.1,1,3.7,1,5.2c0,1-0.5,2.1-1,3.1c-0.5,0.5-2.1,1-3.7,1s-4.2,0.5-6.8,0.5s-5.2,0-6.8,0
				s-3.1-0.5-3.7-0.5c-0.5,0-1.6-0.5-2.1-1.6c-0.5-0.5-1-1-1-2.1l-15.1-44.4h-74.7l-14.6,43.9c-0.5,1-0.5,1.6-1,2.1
				c-0.5,0.5-1,1-2.1,1.6c-1,0.5-2.1,0.5-3.7,1s-3.7,0.5-6.3,0.5c-2.6,0-4.7,0-6.8-0.5c-2.1-0.5-3.1-0.5-3.7-1.6c-0.5-1-1-1.6-1-3.1
				c0-1,0.5-3.1,1-5.2l60.1-168.7c0.5-1,1-2.1,1.6-2.6c0.5-0.5,1.6-1,2.6-1.6s2.6-0.5,4.2-0.5c1.6,0,4.2,0,6.8,0c3.1,0,5.2,0,7.3,0
				s3.7,0.5,4.7,0.5c1,0.5,2.1,1,2.6,1.6c0.5,0.5,1,1.6,1.6,2.6L1158.7,202.1z M1081.4,53.2L1081.4,53.2l-30.8,90.3h62.1
				L1081.4,53.2z"/>
		</g>
	</g>
	<g>
		<path class="st2" d="M5.1,114.9C5.1,54.3,53.7,4.7,113.7,4.7s108.6,49.1,108.6,110.2c0,60.6-48.6,110.2-108.6,110.2
			S5.1,176,5.1,114.9L5.1,114.9z"/>
	</g>
	<g>
		<polygon class="st2" points="825.5,29.2 783.2,157.7 740.9,29.2 		"/>
	</g>
	<g>
		<path class="st1" d="M104.3,136.8c1.6,2.1,1.6,5.2-0.5,6.8l-8.4,2.1l-1.6-1.6l3.1-7.8C99.6,134.7,102.7,134.7,104.3,136.8
			L104.3,136.8z M145.6,88.7l-51.2,45.4l-7.3,18.3l18.8-4.7l51.2-45.4"/>
	</g>
	<g>
		<path class="st1" d="M167.5,87.7l-6.3-7.3c-1.6-1.6-3.7-2.1-5.2-0.5l-7.3,6.3l11.5,13.1l7.3-6.3C168.6,91.9,168.6,89.3,167.5,87.7
			L167.5,87.7z"/>
	</g>
	<g>
		<path class="st3" d="M100.7,44.9H121c3.7,0,6.8,3.1,6.8,6.8v3.7h29.2c3.7,0,6.8,3.1,6.8,6.8v9.4h-10.4v-5.7h-18.8v10.4h-48V65.8
			H67.8v108.1h85.6v-66.3h10.4v70c0,3.7-3.1,6.8-6.8,6.8H64.6c-3.7,0-6.8-3.1-6.8-6.8V62.1c0-3.7,3.1-6.8,6.8-6.8h29.2v-3.7
			C93.9,48,97,44.9,100.7,44.9L100.7,44.9z M111.1,52.2c-1.6,0-2.6,0.5-3.7,1.6s-1.6,2.1-1.6,3.7c0,3.1,2.1,5.2,5.2,5.2
			c3.1,0,5.2-2.1,5.2-5.2C116.3,54.3,114.2,52.2,111.1,52.2L111.1,52.2z"/>
	</g>
</g>
</svg>
